# xmcd CD database file
#
# Track frame offsets:
#	182
#	28282
#	35977
#	93107
#	110310
#	154857
#	163322
#	163855
#
# Disc length: 2399 seconds
#
# Revision: 0
# Processed by: cddbd v1.5.2PL0 Copyright (c) Steve Scherf et al.
# Submitted via: CDex 1.51
#
DISCID=67095d08
DTITLE=Torgue - Le Prince Apatride
DYEAR=1980
DGENRE=New Age
TTITLE0=Bacchanale Cardinal
TTITLE1=Seul Le Lézard
TTITLE2=La Stratégie Des Dames
TTITLE3=Le Nain
TTITLE4=Le Prince Apatride
TTITLE5=Le Sablier Du Chat
TTITLE6=Plainte D'Un Apocryphe Aphone
TTITLE7=Prélude A La Cruauté
EXTD=YEAR: 1980
EXTT0=
EXTT1=
EXTT2=
EXTT3=
EXTT4=
EXTT5=
EXTT6=
EXTT7=
PLAYORDER=
